<?xml version="1.0" standalone="no"?>
<!DOCTYPE svg PUBLIC "-//W3C//DTD SVG 20010904//EN"
 "http://www.w3.org/TR/2001/REC-SVG-20010904/DTD/svg10.dtd">
<svg version="1.0" xmlns="http://www.w3.org/2000/svg"
 width="135.000000pt" height="135.000000pt" viewBox="0 0 135.000000 135.000000"
 preserveAspectRatio="xMidYMid meet">
<metadata>
Created by potrace 1.14, written by Peter Selinger 2001-2017
</metadata>
<g transform="translate(0.000000,135.000000) scale(0.100000,-0.100000)"
fill="#000000" stroke="none">
<path d="M520 1066 c-11 -35 -14 -54 -24 -151 -3 -27 -8 -63 -12 -80 -3 -16
-7 -37 -9 -45 -1 -8 3 -24 10 -36 12 -18 10 -24 -15 -48 -26 -24 -28 -30 -18
-52 13 -28 43 -39 129 -43 14 0 46 -14 70 -31 24 -16 51 -30 60 -30 23 0 59
31 63 55 4 22 -20 55 -39 55 -6 0 -26 11 -45 25 -21 16 -28 25 -18 25 9 0 25
12 36 28 18 26 20 48 9 121 -3 18 1 50 8 72 8 22 14 40 14 42 -1 6 13 65 21
84 5 11 6 24 3 27 -9 8 -49 -40 -87 -105 -39 -65 -49 -92 -50 -136 -1 -18 -4
-35 -8 -38 -3 -4 -2 -22 3 -41 11 -40 6 -54 -19 -49 -9 2 -23 4 -30 4 -10 1
-10 6 -1 22 7 14 9 49 4 103 -8 104 -8 105 -29 233 -4 27 -15 23 -26 -11z"/>
<path d="M1054 1028 c-3 -5 -10 -6 -15 -3 -5 4 -9 2 -9 -3 0 -6 -13 -15 -29
-20 -53 -19 -205 -138 -228 -179 -29 -52 -27 -97 4 -114 21 -11 29 -11 51 2
15 8 27 21 28 29 1 8 2 24 2 35 2 23 24 49 148 176 46 47 77 86 68 86 -8 0
-17 -4 -20 -9z"/>
<path d="M1155 829 c-35 -8 -136 -47 -150 -59 -9 -7 -68 -19 -102 -20 -18 0
-43 -29 -43 -49 0 -26 55 -51 91 -41 31 9 172 90 177 102 2 5 9 8 15 8 6 0 18
6 26 14 9 8 29 17 45 20 32 6 46 15 25 17 -8 1 -17 1 -21 0 -5 0 -8 3 -8 7 0
10 -15 11 -55 1z"/>
<path d="M121 803 c8 -10 16 -20 19 -23 3 -3 23 -27 45 -55 22 -27 48 -57 57
-65 24 -21 68 -109 68 -136 0 -59 67 -72 84 -16 14 42 -83 212 -120 212 -8 0
-14 3 -14 8 0 9 -90 69 -126 82 -25 10 -26 9 -13 -7z"/>
<path d="M841 570 c-13 -11 -20 -20 -16 -20 4 0 3 -6 -3 -12 -10 -13 -19 -66
-27 -160 -3 -27 -9 -57 -15 -68 -17 -32 -12 -66 13 -77 56 -26 155 60 172 149
2 11 7 46 11 77 3 31 8 58 10 60 9 10 -21 44 -51 57 -45 19 -65 17 -94 -6z"/>
<path d="M485 518 c-16 -9 -33 -25 -39 -35 -17 -30 -18 -111 -1 -146 16 -34
68 -72 84 -62 5 3 12 1 15 -3 6 -10 100 -9 131 1 41 14 62 74 43 122 -13 33
-99 125 -117 125 -6 0 -11 4 -11 8 0 15 -76 8 -105 -10z"/>
</g>
</svg>
