<svg xmlns="http://www.w3.org/2000/svg" height="40" viewBox="0 -960 960 960" width="40"><path d="M709.18-588.667 587.898-709.18l57.974-57.205q17.205-17.205 41.321-17.205 24.115 0 41.064 17.205l38.128 38.898q16.949 16.948 16.949 41.064 0 24.115-16.949 40.551l-57.205 57.205ZM154.615-155.384v-121.949l185.744-185.744-214.077-215.154 140.026-140.333 216 215.307 105.59-105.923L709.18-588.667 604.103-482.308l214.384 216.077-140.102 139.282-215.923-214.41-185.898 185.975H154.615Zm210.077-331.257 93.282-93.282-83.897-84.411-47.231 47.667-24.103-24.102L349.897-688l-83.512-83.436-93.206 93.282 191.513 191.513Zm312.539 312.692 93.282-93.282L687-350.667l-47.154 47.154-24.179-24.102 47.231-47.231-83.975-83.898-93.282 93.283 191.59 191.512Zm-488.77-15.282h73.282L660.59-588l-73.359-73.359-398.77 398.846v73.282Z"/></svg>